<svg width="228" height="228" viewBox="0 0 228 228" fill="none" xmlns="http://www.w3.org/2000/svg">
<rect width="228" height="228" rx="11" fill="transparent"/>
<circle cx="114.499" cy="114.501" r="76.2568" fill="#002734"/>
<path fill-rule="evenodd" clip-rule="evenodd" d="M114.5 200C161.72 200 200 161.72 200 114.5C200 67.2797 161.72 29 114.5 29C67.2797 29 29 67.2797 29 114.5C29 161.72 67.2797 200 114.5 200ZM115.078 187.291C155.598 187.291 188.446 154.442 188.446 113.922C188.446 73.4021 155.598 40.5541 115.078 40.5541C74.5575 40.5541 41.7095 73.4021 41.7095 113.922C41.7095 154.442 74.5575 187.291 115.078 187.291Z" fill="#FF7E35"/>
<path d="M71.1719 106.412L104.101 80.9932L115.077 100.057L154.939 71.75" stroke="white" stroke-width="5.77703" stroke-linecap="square"/>
<path d="M145.117 67.1289L157.249 69.4397V80.9938" stroke="white" stroke-width="5.77703"/>
<path d="M70.5938 129.521L70.5938 156.096" stroke="#8FFF53" stroke-width="5.77703" stroke-linecap="square"/>
<path d="M92.5469 121.434L92.5469 156.096" stroke="#8FFF53" stroke-width="5.77703" stroke-linecap="square"/>
<path d="M114.5 112.191L114.5 156.097" stroke="#8FFF53" stroke-width="5.77703" stroke-linecap="square"/>
<path d="M136.453 104.104L136.453 156.097" stroke="#8FFF53" stroke-width="5.77703" stroke-linecap="square"/>
<path d="M157.25 94.8594L157.25 156.096" stroke="#8FFF53" stroke-width="5.77703" stroke-linecap="square"/>
<circle cx="105.257" cy="63.6618" r="5.77703" fill="#FF7E35"/>
<path d="M165.338 180.357C165.338 183.547 167.924 186.134 171.115 186.134C174.305 186.134 176.892 183.547 176.892 180.357H165.338ZM148.724 188.903C157.847 193.839 165.342 195.651 171.21 193.726C177.789 191.567 179.91 185.706 180.265 181.492C180.447 179.338 180.238 177.233 179.802 175.456C179.583 174.564 179.281 173.651 178.877 172.798C178.519 172.043 177.875 170.892 176.772 169.941C175.575 168.91 172.951 167.516 169.917 168.906C167.583 169.974 166.658 172.051 166.33 172.895C165.559 174.881 165.338 177.508 165.338 180.357H176.892C176.892 177.717 177.157 176.932 177.102 177.075C177.065 177.168 176.935 177.487 176.636 177.888C176.34 178.286 175.739 178.948 174.727 179.411C172.132 180.599 169.971 179.333 169.231 178.695C168.867 178.381 168.659 178.1 168.572 177.973C168.477 177.834 168.437 177.749 168.437 177.748C168.434 177.743 168.452 177.78 168.482 177.866C168.511 177.951 168.546 178.066 168.581 178.211C168.734 178.832 168.823 179.678 168.752 180.521C168.602 182.301 168.015 182.614 167.607 182.748C166.489 183.115 162.718 183.338 154.222 178.741L148.724 188.903Z" fill="#FF7E35"/>
</svg>
