<?xml version="1.0" encoding="UTF-8"?>
<!DOCTYPE svg PUBLIC "-//W3C//DTD SVG 1.1//EN" "http://www.w3.org/Graphics/SVG/1.1/DTD/svg11.dtd">
<!-- Creator: CorelDRAW 2020 (64-Bit Evaluation Version) -->
<svg xmlns="http://www.w3.org/2000/svg" xml:space="preserve" width="50.8mm" height="50.8mm" version="1.1" style="shape-rendering:geometricPrecision; text-rendering:geometricPrecision; image-rendering:optimizeQuality; fill-rule:evenodd; clip-rule:evenodd"
viewBox="0 0 5080 5080"
 xmlns:xlink="http://www.w3.org/1999/xlink"
 xmlns:xodm="http://www.corel.com/coreldraw/odm/2003">
 <defs>
  <style type="text/css">
   <![CDATA[
    .str0 {stroke:#FEFEFE;stroke-width:52.92;stroke-miterlimit:22.9256}
    .str2 {stroke:#FEFEFE;stroke-width:20;stroke-miterlimit:22.9256}
    .str1 {stroke:#045296;stroke-width:20;stroke-miterlimit:22.9256}
    .fil8 {fill:none}
    .fil4 {fill:none;fill-rule:nonzero}
    .fil7 {fill:#FEFEFE}
    .fil3 {fill:#EF7F1A}
    .fil5 {fill:#00A0E3}
    .fil6 {fill:#045296}
    .fil0 {fill:#00A0E3;fill-rule:nonzero}
    .fil1 {fill:#045296;fill-rule:nonzero}
    .fil2 {fill:#03549D;fill-rule:nonzero}
   ]]>
  </style>
     <clipPath id="id0" style="clip-rule:nonzero">
      <path d="M1093.31 3057.29c208.82,524.04 716.39,893.96 1309.47,893.96 779.42,0 1411.26,-638.8 1411.26,-1426.81 0,-119.66 -14.61,-235.86 -42.09,-346.9l-49.1 144.26 -53.83 -60.49 -47.85 -66.51 -891.33 762.03 -828.21 -499.1 -739.04 734.97 -69.28 -135.41z"/>
     </clipPath>
 </defs>
 <g id="Layer_x0020_1">
  <metadata id="CorelCorpID_0Corel-Layer"/>
  <g id="_2303636478608">
   <g>
    <path class="fil0" d="M2412.45 1128.74c-779.41,0 -1411.27,631.86 -1411.27,1411.26 0,169.93 30.05,332.83 85.1,483.72l12.62 -12.62 -40.22 -77.75 774.95 -774.79 846.15 493.65 747.47 -628.53 -41.67 -37.05 57.58 -21.76 -81.42 -72.37 251.06 -94.85c-248.81,-401.46 -693.31,-668.91 -1200.35,-668.91zm-1309.47 1938.3c208.82,518.33 716.39,884.21 1309.47,884.21 779.42,0 1411.26,-631.84 1411.26,-1411.25 0,-118.35 -14.61,-233.29 -42.09,-343.12l-49.1 142.68 -53.83 -59.82 -47.85 -65.79 -891.33 753.72 -828.21 -493.65 -739.04 726.95 -69.28 -133.93z"/>
    <path class="fil1" d="M3360.9 3538.8c-260.51,265.95 -606.95,412.45 -975.4,412.45 -368.47,0 -714.9,-146.5 -975.44,-412.45 -103.79,-105.98 -189.02,-225.86 -253.98,-355.55l491.34 -476.84c6.31,24.43 18.66,46.44 39.12,62.27 28.15,21.76 58.08,32.19 67.24,71.68 8.46,36.53 1.86,66.95 17.73,101.47 24.73,53.84 81.32,71.7 121.63,112.87 52.84,54.02 49.22,124.2 49.22,200.64 0,80.11 29.82,141.01 40.17,214.34 10.72,75.63 32.5,145.74 48.06,218.87 11.75,55.01 58.22,138.18 125.52,126.99 4.68,-26.07 -21.79,-46.49 -25.1,-72.28 -3.03,-23.48 3.42,-47.87 -1.16,-72.96 -9.07,-49.72 -8.6,-78.89 23.67,-122.08 11.41,-15.27 27.1,-27.9 38.9,-43.19 22.8,-29.67 5.34,-20.89 4.35,-53.37 -1.22,-40.55 10.86,-20.64 34.82,-33.31 12.42,-6.55 26.21,-26.37 35.74,-36.47 20.93,-22.19 53.16,-48.79 69.32,-75.13 18.17,-29.66 15.9,-70.97 34.56,-101.55 21.37,-35.11 51.68,-35.15 81.58,-58.03 38.74,-29.66 22.78,-60.91 29.83,-101.59 10.57,-60.86 35.84,-127.28 71.12,-179.41l172.59 101.5 701.99 -585.68c12.54,27.61 -11.28,67.12 -16.58,93.6 -7.77,38.67 7.2,72.21 30.5,105.09 27.92,39.44 34.5,46.37 28.76,99.08 -4.44,41.07 -14.65,78.63 -23.31,119.34 -8.25,38.89 -32.54,68.46 -31.28,109.69 1.21,38.01 17.32,68.62 12.42,109.44 -4.31,35.93 -6.47,78.78 -15.64,114 -9.45,36.04 -34.37,68.01 -44.91,104.9 -9.95,35.12 -7.15,80.57 16.91,109.43 25.03,30.07 49.9,12.87 79.3,-9.89 57.92,-44.92 84.31,-121.1 122.8,-181.65 39.29,-61.85 78.9,-118.29 105.1,-182.36 5.53,-13.62 12.27,-27 19.09,-40.43 -63.58,226.97 -182.56,435.05 -350.58,606.57zm-2309.19 -634.06c-30.14,-116.6 -45.69,-237.94 -45.69,-361.74 0,-376.14 143.5,-729.82 404.04,-995.76 6.12,-6.26 12.54,-12.12 18.77,-18.23 -4.89,15.26 -10.24,30.26 -18.88,43.44 -20.49,31.18 -54.73,43.7 -76.2,72.97 -19.56,26.67 -35.28,67.05 -42.56,97.01 -7.9,32.38 -3.1,71.77 -14.27,104.11 -14.18,41.03 -39.97,65.46 -35.18,113.05 56.04,16.99 31.73,-84.68 78.96,-89.91 14.97,37.95 5.12,108.52 0.87,149.89 -5.87,56.88 -16.72,70.99 16.55,119.81 26.35,38.68 35.09,64.56 86.08,70.68 46.76,5.62 66.17,27.22 85.64,73.22 36.03,7.84 57.88,13.91 62.54,54.69 7.87,4.47 19.24,13.98 30.7,22.9l-551.37 543.87zm1163.36 -511.96c-3.1,-2.9 -6.45,-5.43 -10.05,-7.48 -2.52,-1.44 -5.67,-2.61 -9.24,-3.63l-157.32 -90.55c-1.24,-2.07 -2.26,-4.16 -3.05,-6.25 -3.36,-0.14 -6.56,-0.52 -9.66,-1.07l-217.59 -125.24 -176.78 174.38c-18.26,-8.67 -21.81,-31.19 -19.56,-67.15l-8.95 -18.21c22.23,-63.04 -17.8,-67.49 -61.87,-82.77 -6.09,-44.9 48,-76.95 25.38,-126.17 -45.76,-2.4 -95.64,129.03 -134.35,72.1 -25.53,-37.53 13.27,-142.54 35.75,-174.38 22.65,-32.05 105,-89.9 143.81,-94.89 30.19,-3.82 56.61,9.7 68.22,36.73 12.65,29.47 -3.86,57.22 -0.22,90.62 38.6,-9.1 28.62,-59.22 26.92,-86.09 -2.8,-44.84 20.22,-41.45 42.65,-73.81 20.41,-29.47 23.58,-63.11 49.04,-91.59 19.82,-22.19 43.12,-45.57 64.87,-65.99 24.8,-23.35 52.81,-21.22 78.29,-38.4 38.71,-26.14 -12.5,-74.68 44.54,-71.04 20.3,1.29 10.24,14.21 37.11,7.96 11.4,-2.62 32.48,-13.39 44.4,-18.35 54.45,-22.59 15.85,-28.61 -9.12,-58.03 -31.76,-37.4 13.2,-30.85 45.97,-36.47 24.06,-4.15 18.99,-12.14 40.12,2.3 18.61,12.72 7.66,29.65 34.73,28.7 51.57,-1.77 15.84,-54.52 4.37,-72.04 -19.65,-29.96 -24.7,-50.85 -66.22,-51.99 3.94,-13.45 4.46,-31.24 -1.34,-44.22 -34.97,4.69 -41,-21.25 -67.48,-31.45 -44.54,-17.21 -37.4,20.03 -55.63,45.44 -18.79,26.19 -54.62,21.65 -68.42,53.61 -14.32,33.24 -0.66,58.69 -53.04,49.59 7.13,-20.04 4.67,-45.65 3.34,-67.02 -15.21,-2 -29.12,-5.95 -43.21,-10.61 0.06,-53.44 58.08,-57.95 97.49,-63.05 44.16,-5.68 58.59,-51.52 98.04,-59.25 36.8,-7.23 63.16,53.6 108.54,18.34 25.89,-20.12 13.93,-31.92 4.45,-51.33 -2.53,-5.16 -15.58,-16.84 -19.05,-21.66l-0.87 -1.62c35.17,-6.94 70.77,-12.3 106.62,-16.44 6.73,19.99 21.36,44.17 29.35,58.01 5.83,10.13 16.88,16.97 21.54,28.12 5.32,12.69 -7.2,28.47 8.52,37.05 24.26,13.22 94.92,-73 111.87,-86.97 21.54,-17.76 34.98,-27.49 29.86,-44.69 113.56,3.45 224.72,20.88 331.66,51.46 8.51,10.88 17.24,22.1 25.99,34.5 18.83,26.66 30.71,50.71 64.64,62.58 19.64,6.83 82.39,5.61 56.31,51.4 -24.09,42.25 -50.74,-13.13 -62.86,-26.42 -16.84,-18.44 -66.58,-38.89 -65.03,3.39 2.33,62.97 141.28,52.84 111.46,121.99 16.63,10.03 49.49,26.68 44.09,51.44 -6.65,30.58 -45.66,11.07 -44.9,50.17 1.1,55.39 60.3,100.96 115.27,81.03 58.62,-21.24 14.47,-104.31 81.64,-112.85 26.47,-3.39 42.06,4.53 65.77,23.7 19.34,15.62 31.77,51.07 58.41,48.31 2.77,-16.87 -9.71,-28.93 -11.83,-44.46 20.61,5.26 62.09,31.54 73.9,49.86 17.91,27.71 16.01,67.68 59.74,31.92 -6.53,-5.52 -9.82,-17.76 -13.4,-22.12 55.96,0.19 95.04,23.67 119.09,73.26 53.66,110.71 -78.14,22.88 -84.69,80.52 -32.43,-10.52 -46.86,-37.19 -75.04,-53.14 -13.37,-7.56 -38.07,-3.52 -48.32,-11.18 -14.11,-10.55 -10.62,-29.72 -23.03,-40.11 -48.74,-40.82 -159.88,25.09 -204.71,51.43 -12.14,7.14 -25.08,7.89 -33.35,21.3 -14.24,23.03 5.75,28.91 1.28,50.38 -6.34,30.65 -45.51,44.75 -57.36,69.33 -28.44,58.96 29.32,143.37 21.53,208.83 -4.3,36.34 -42.7,75.77 -27.95,106.15 6.32,13.08 28.46,24.24 36.91,39.69 7.72,14 10.98,32.39 21.12,46.92 22.9,32.86 52.8,68.29 81.84,101.64l-380.23 315.46 -450.72 -259.43z"/>
    <path class="fil2" d="M1093.31 3057.29c208.82,524.04 716.39,893.96 1309.47,893.96 779.42,0 1411.26,-638.8 1411.26,-1426.81 0,-119.66 -14.61,-235.86 -42.09,-346.9l-49.1 144.26 -53.83 -60.49 -47.85 -66.51 -891.33 762.03 -828.21 -499.1 -739.04 734.97 -69.28 -135.41z"/>
    <g style="clip-path:url(#id0)">
     <g>
      <polygon id="1" class="fil3 str0" points="2461.92,2032.77 2660.3,2032.77 2660.3,4096.02 2461.92,4096.02 "/>
      <polygon class="fil1 str0" points="2256.6,2032.77 2454.97,2032.77 2454.97,4096.02 2256.6,4096.02 "/>
      <polygon class="fil3 str0" points="2051.28,2032.77 2249.65,2032.77 2249.65,4096.02 2051.28,4096.02 "/>
      <polygon class="fil1 str0" points="1845.95,2032.77 2044.32,2032.77 2044.32,4096.02 1845.95,4096.02 "/>
      <polygon class="fil3 str0" points="1640.63,2032.77 1839,2032.77 1839,4096.02 1640.63,4096.02 "/>
      <polygon class="fil1 str0" points="1435.3,2032.77 1633.68,2032.77 1633.68,4096.02 1435.3,4096.02 "/>
      <polygon class="fil3 str0" points="1229.98,2032.77 1428.35,2032.77 1428.35,4096.02 1229.98,4096.02 "/>
      <polygon class="fil1 str0" points="1024.66,2032.77 1223.03,2032.77 1223.03,4096.02 1024.66,4096.02 "/>
      <polygon class="fil1 str0" points="2665.66,2032.77 2864.03,2032.77 2864.03,4096.02 2665.66,4096.02 "/>
      <polygon class="fil3 str0" points="2869.39,2032.77 3067.76,2032.77 3067.76,4096.02 2869.39,4096.02 "/>
      <polygon class="fil1 str0" points="3073.13,2032.77 3271.5,2032.77 3271.5,4096.02 3073.13,4096.02 "/>
      <polygon class="fil3 str0" points="3276.86,2032.77 3475.23,2032.77 3475.23,4096.02 3276.86,4096.02 "/>
      <polygon class="fil1 str0" points="3480.59,2032.77 3678.97,2032.77 3678.97,4096.02 3480.59,4096.02 "/>
      <polygon class="fil3 str0" points="3684.33,2032.77 3882.7,2032.77 3882.7,4096.02 3684.33,4096.02 "/>
     </g>
    </g>
    <path class="fil4" d="M1093.31 3057.29c208.82,524.04 716.39,893.96 1309.47,893.96 779.42,0 1411.26,-638.8 1411.26,-1426.81 0,-119.66 -14.61,-235.86 -42.09,-346.9l-49.1 144.26 -53.83 -60.49 -47.85 -66.51 -891.33 762.03 -828.21 -499.1 -739.04 734.97 -69.28 -135.41z"/>
    <polygon class="fil1 str1" points="1082.52,3027.49 1857.46,2252.69 2703.62,2746.34 3493.25,2082.35 3385.57,1986.63 3923.94,1783.24 3732.52,2339.56 3678.69,2279.74 3630.83,2213.95 2739.51,2967.67 1911.3,2474.02 1172.25,3200.97 "/>
    <path class="fil5" d="M3387.35 1854.24l13.84 3.46c0,0 75.7,83.05 73.11,84.78 -2.6,1.73 -85.65,71.8 -85.65,71.8l-105.54 -121.11 104.24 -38.93z"/>
    <polygon class="fil6" points="3552.08,2145.4 3795.94,2432.94 4078.82,1589.56 3369.39,1833.68 3500.7,1933.91 3419.06,1988.66 3562.44,2157.61 "/>
    <polygon class="fil7 str2" points="1022.02,2905.69 1884.93,2098.54 2725.56,2585.73 3500.7,1933.9 3389.99,1835.49 3949.61,1634.03 3746.72,2198.37 3691.37,2136.87 3642.16,2069.22 2725.72,2818.79 1881.84,2347.06 1109.43,3096.07 "/>
   </g>
   <rect class="fil8" x="-0" y="0" width="5080" height="5080"/>
  </g>
 </g>
</svg>
